<?xml version="1.0" encoding="UTF-8" standalone="no"?>
<!-- Created with Inkscape (http://www.inkscape.org/) -->

<svg
   xmlns:dc="http://purl.org/dc/elements/1.1/"
   xmlns:cc="http://creativecommons.org/ns#"
   xmlns:rdf="http://www.w3.org/1999/02/22-rdf-syntax-ns#"
   xmlns:svg="http://www.w3.org/2000/svg"
   xmlns="http://www.w3.org/2000/svg"
   xmlns:sodipodi="http://sodipodi.sourceforge.net/DTD/sodipodi-0.dtd"
   xmlns:inkscape="http://www.inkscape.org/namespaces/inkscape"
   width="140"
   height="100"
   viewBox="0 0 140 100"
   id="svg2"
   version="1.1"
   inkscape:version="0.91 r13725"
   sodipodi:docname="default-image.svg">
  <defs
     id="defs4" />
  <sodipodi:namedview
     id="base"
     pagecolor="#ffffff"
     bordercolor="#666666"
     borderopacity="1.0"
     inkscape:pageopacity="0.0"
     inkscape:pageshadow="2"
     inkscape:zoom="2.744"
     inkscape:cx="70.41252"
     inkscape:cy="-3.0695191"
     inkscape:document-units="px"
     inkscape:current-layer="layer1"
     showgrid="false"
     units="px"
     fit-margin-top="0"
     fit-margin-left="0"
     fit-margin-right="0"
     fit-margin-bottom="0" />
  <metadata
     id="metadata7">
    <rdf:RDF>
      <cc:Work
         rdf:about="">
        <dc:format>image/svg+xml</dc:format>
        <dc:type
           rdf:resource="http://purl.org/dc/dcmitype/StillImage" />
        <dc:title></dc:title>
      </cc:Work>
    </rdf:RDF>
  </metadata>
  <g
     inkscape:label="Layer 1"
     inkscape:groupmode="layer"
     id="layer1"
     transform="translate(-429.00128,-192.17599)">
    <path
       style="color:#000000;font-style:normal;font-variant:normal;font-weight:normal;font-stretch:normal;font-size:medium;line-height:normal;font-family:sans-serif;text-indent:0;text-align:start;text-decoration:none;text-decoration-line:none;text-decoration-style:solid;text-decoration-color:#000000;letter-spacing:normal;word-spacing:normal;text-transform:none;direction:ltr;block-progression:tb;writing-mode:lr-tb;baseline-shift:baseline;text-anchor:start;white-space:normal;clip-rule:nonzero;display:inline;overflow:visible;visibility:visible;opacity:0.8;isolation:auto;mix-blend-mode:normal;color-interpolation:sRGB;color-interpolation-filters:linearRGB;solid-color:#000000;solid-opacity:1;fill:#e6e6e6;fill-opacity:1;fill-rule:nonzero;stroke:none;stroke-width:42.82723999;stroke-linecap:butt;stroke-linejoin:miter;stroke-miterlimit:4;stroke-dasharray:none;stroke-dashoffset:0;stroke-opacity:1;marker:none;color-rendering:auto;image-rendering:auto;shape-rendering:auto;text-rendering:auto;enable-background:accumulate"
       d="m 474.26337,213.92119 0.005,5.20792 -5.29239,0 -0.0171,1.78959 0,43.82695 59.61076,0 0,-45.60101 -37.79494,-0.0149 -0.0856,-5.19223 -16.42522,-0.0149 z m 2.25511,2.29783 11.90983,0 0,3.0274 -11.90983,0 0,-3.0274 z m -4.01201,6.98699 52.5147,0 0,37.99153 -52.5147,0 0,-37.99153 z m 26.53542,6.47537 c -6.80103,0 -12.34832,5.54728 -12.34832,12.34832 0,6.80102 5.54729,12.34833 12.34832,12.34833 6.80103,0 12.34832,-5.54731 12.34832,-12.34833 0,-6.80104 -5.54729,-12.34832 -12.34832,-12.34832 z m 0,3.16623 c 5.08989,0 9.18207,4.0922 9.18207,9.18209 0,5.0899 -4.09218,9.18207 -9.18207,9.18207 -5.08989,0 -9.18224,-4.09217 -9.18224,-9.18207 0,-5.08989 4.09235,-9.18209 9.18224,-9.18209 z"
       id="rect3347"
       inkscape:connector-curvature="0" />
  </g>
</svg>
