<svg width="303" height="133" viewBox="0 0 303 133" xmlns="http://www.w3.org/2000/svg"><title>logo-sizeid</title><g fill="none" fill-rule="evenodd"><path d="M105.4092 59.7069c6.809-.605 9.959-5.943 8.563-10.779-1.206-4.18-7.231-5.656-11.644-4.885-3.875.676-8.7 4.633-7.928 9.398.853 5.26 6.344 6.682 11.009 6.266M59.7202 33.5164c-12.612-1.011-31.392 3.144-36.715 14.611-7.99 17.212 12.219 25.101 22.856 29.425 6.932 2.818 23.447 7.732 23.447 17.634 0 9.066-12.059 15.701-26.018 15.701-9.487 0-15.215-2.968-18.391-8.265-2.699-4.498 2.117-12.29-1.117-14.617-4.036-2.906-11.724 2.36-12.622 7.867-3.036 18.632 18.103 25.372 31.528 25.372 25.949 0 38.371-11.699 39.859-23.881 2.293-18.775-25.979-26.023-32.838-29.076-9.826-4.377-17.774-9.12-14.518-15.905 3.767-7.851 15.545-8.666 20.188-8.536 12.89.36 16.047 4.06 17.111 6.899 2.559 6.821-8.161 13.766-3.606 18.301 4.169 4.153 15.601-5.403 15.593-16.701-.006-9.681-12.2-17.822-24.757-18.829M176.4658 75.0819c3.557 5.01-9.136 14.493-13.126 16.413-2.004-13.625 10.119-20.649 13.126-16.413m-9.921 24.93c3.036-1.894 27.9-15.328 19.84-31.192-3.103-6.105-14.311-7.982-22.822-2.051-6.407 4.463-14.781 15.457-10.714 30.821-.785.525-9.44 6.443-17.154 6.443-5.31 0-9.548-2.988-9.584-2.986 0 0 18.115-20.169 20.604-23.21 1.508-1.841 5.201-4.825 5.174-7.714-.032-3.428-3.128-4.885-5.508-4.91-1.862-.02-6.979 2.215-13.675-.151-2.726-.962-8.565-2.275-13.676 1.454-4.495 3.281-7.713 13.775-4.473 15.225 2.663 1.193 3.923-4.374 7.587-6.79 1.807-1.193 7.136-2.141 12.115.515-.737.887-22.976 31.259-32.161 27.968-7.088-2.538 9.386-34.247 6.514-37.52-3.077-3.504-11.088-.533-13.032 2.466-1.907 2.942-5.468 13.551-6.536 18.287-1.614 7.161-6.675 22.853 2.899 26.157 6.9 2.383 16.351-1.795 18.605-2.427 4.434-1.243 8.221-1.358 12.419.383 4.028 1.671 7.985 2.756 12.292 2.756 8.375 0 20.693-7.759 21.398-8.108 1.258 1.93 5.579 8.108 16.58 8.108 12.943 0 20.965-6.856 21.881-8.177v-12.175s-9.677 10.312-21.301 10.312c-3.834 0-6.501-2.282-7.272-3.484z" fill="#28323C"/><path d="M246.71 37.6219c-3.915 0-7.088-3.173-7.088-7.087 0-3.912 3.173-7.086 7.088-7.086 3.914 0 7.085 3.174 7.085 7.086 0 3.914-3.171 7.087-7.085 7.087zm-44.921 3.227c-1.706 1.34-2.702 3.389-2.702 5.561v70.596c0 3.905 3.165 7.072 7.072 7.072h81.1c3.905 0 7.072-3.168 7.072-7.072v-70.596c0-2.172-.996-4.221-2.703-5.561l-33.193-26.101c-6.883-5.407-16.571-5.407-23.453 0l-33.193 26.101z" fill="#C80A32"/><path d="M264.0508 79.8729v11.014c-.006 2.877-2.339 5.205-5.218 5.205h-6.746c.392 0 .709-.317.709-.708v-32.191c0-.39-.317-.708-.709-.708h6.746c2.879 0 5.212 2.333 5.218 5.21v12.178zm10.438-13.945c-.016-6.713-5.459-12.147-12.175-12.149h-20.664c.391 0 .708.319.708.709v49.606c0 .392-.317.709-.708.709l20.662-.002c6.718 0 12.16-5.432 12.176-12.146l.001-26.727zM231.7754 104.0936v-49.605c0-.391.317-.709.709-.709h-11.855c.392 0 .709.318.709.709v49.605c0 .393-.317.709-.709.709h11.855c-.392 0-.709-.316-.709-.709" fill="#FFF"/></g></svg>