<?xml version="1.0" standalone="no"?>
<!DOCTYPE svg PUBLIC "-//W3C//DTD SVG 1.1//EN" "http://www.w3.org/Graphics/SVG/1.1/DTD/svg11.dtd" >
<svg xmlns="http://www.w3.org/2000/svg">
<metadata>Generated by IcoMoon</metadata>
<defs>
<font id="icomoon" horiz-adv-x="1024">
<font-face units-per-em="1024" ascent="960" descent="-64" />
<missing-glyph horiz-adv-x="1024" />
<glyph unicode="&#x20;" horiz-adv-x="512" d="" />
<glyph unicode="&#xe900;" glyph-name="facebook" d="M383.872-64h191.872l0.128 512 174.272 0.064 18.688 176.448h-193.088l0.256 88.32c0 46.016 3.136 70.656 69.184 70.656h121.984v176.512h-174.912c-169.536 0-208.576-87.616-208.576-231.552l0.192-103.936-128.704-0.064v-176.448h128.704v-512z" />
<glyph unicode="&#xe901;" glyph-name="twitter" d="M995.679 848.58c-40.575-24.063-85.565-41.535-133.404-51.006-38.335 40.895-92.925 66.366-153.307 66.366-116.028 0-210.073-94.077-210.073-210.009 0-16.447 1.856-32.511 5.44-47.871-174.555 8.768-329.366 92.413-432.946 219.481-18.111-30.975-28.415-67.070-28.415-105.597 0-72.894 37.119-137.18 93.437-174.811-34.431 1.152-66.814 10.624-95.165 26.367 0-0.896 0-1.728 0-2.624 0-101.757 72.446-186.65 168.475-205.978-17.599-4.8-36.159-7.36-55.358-7.36-13.568 0-26.687 1.344-39.551 3.776 26.751-83.453 104.317-144.155 196.186-145.883-71.87-56.318-162.459-89.917-260.888-89.917-16.959 0-33.663 1.024-50.11 2.944 92.989-59.582 203.354-94.397 322.006-94.397 386.356 0 597.677 320.086 597.677 597.677 0 9.088-0.192 18.175-0.64 27.199 41.151 29.503 76.798 66.494 104.957 108.605-37.695-16.703-78.142-28.031-120.636-33.087 43.391 25.983 76.67 67.198 92.349 116.156z" />
<glyph unicode="&#xe902;" glyph-name="google" d="M274.304 28.736c169.6 0 263.296 96.256 263.296 193.024 0 77.568-22.912 124.096-93.696 174.144-24.192 17.152-70.528 58.816-70.528 83.328 0 28.736 8.192 42.88 51.456 76.672 44.288 34.624 75.648 83.328 75.648 139.904 0 67.392-30.016 133.12-86.4 154.752h84.928l60.032 43.328c0 0-200.96 0-267.968 0-120.064 0-233.088-91.008-233.088-196.416 0-107.712 81.856-194.688 204.096-194.688 8.512 0 16.768 0.192 24.832 0.768-7.936-15.168-13.632-32.256-13.632-50.048 0-29.952 16.128-54.208 36.48-74.048-15.36 0-30.272-0.448-46.464-0.448-148.8 0.064-263.296-94.72-263.296-192.96 0-96.768 125.568-157.312 274.304-157.312zM300.8 530.112c-69.056 2.048-134.656 77.248-146.56 167.872-11.904 90.688 34.368 160.064 103.36 158.016s134.656-74.816 146.56-165.44c11.968-90.688-34.368-162.496-103.36-160.448zM291.648 354.048c24-0.256 46.4-4.096 66.688-10.688 55.808-38.72 95.872-60.672 107.136-104.96 2.112-8.96 3.264-18.176 3.264-27.648 0-78.208-50.368-139.328-194.944-139.328-102.848 0-177.088 65.088-177.088 143.296 0 76.672 92.096 140.416 194.944 139.328zM832 704v189.888h-64v-189.888h-192v-64h192v-194.112h64v194.112h192v64z" />
<glyph unicode="&#xe903;" glyph-name="youtube" d="M885.413 798.496c-233.145 15.68-509.52 19.967-746.953 0-73.726-8.256-124.22-97.981-129.724-166.139-11.648-143.164-11.648-224.633 0-367.765 5.568-68.158 54.782-158.395 129.788-167.867 240.249-15.744 515.216-17.919 746.953 0 72.574 12.608 124.22 99.709 129.788 167.867 11.648 143.164 11.648 233.529 0 376.724-5.632 68.158-46.335 154.107-129.852 157.179zM383.957 266.897v366.997l319.958-183.546-319.958-183.482z" />
<glyph unicode="&#xe904;" glyph-name="pinterest" d="M258.017 367.807c49.472 87.488-15.936 106.688-26.176 170.112-41.92 259.2 299.008 436.223 477.567 255.104 123.52-125.44 42.176-511.103-156.992-471.039-190.784 38.336 93.44 345.343-58.816 405.567-123.776 49.024-189.504-149.76-130.816-248.576-34.432-169.92-108.544-329.919-78.528-542.975 97.28 70.592 130.112 205.824 156.992 346.815 48.896-29.76 75.072-60.672 137.408-65.472 229.952-17.856 358.463 229.568 326.975 457.919-27.904 202.368-229.696 305.408-444.863 281.28-170.112-19.072-339.711-156.608-346.751-353.279-4.288-120.064 29.76-210.176 144-235.456z" />
<glyph unicode="&#xe905;" glyph-name="skype" d="M979.712 445.536c0 258.304-210.56 467.776-470.208 467.776-25.792 0-51.136-2.112-75.712-6.144-44.16 28.8-96.704 45.504-153.216 45.504-155.072 0-280.576-125.632-280.576-280.64 0-56.384 16.576-108.8 45.184-152.768-3.84-24.064-5.824-48.64-5.824-73.728 0-258.368 210.432-467.776 470.144-467.776 29.312 0 57.856 2.88 85.568 7.872 43.072-26.752 93.888-42.304 148.288-42.304 155.072 0 280.64 125.632 280.64 280.64 0 58.56-17.92 113.024-48.704 158.080 2.816 20.8 4.416 41.984 4.416 63.488zM553.472 100.832c-149.44-7.808-219.328 25.28-283.392 85.376-71.552 67.136-42.816 143.68 15.488 147.584 58.24 3.904 93.184-66.048 124.288-85.44 31.040-19.392 149.184-63.552 211.584 7.808 67.968 77.632-45.184 117.824-128.128 129.984-118.4 17.536-267.904 81.536-256.256 207.808 11.648 126.080 107.136 190.848 207.68 199.936 128.128 11.648 211.584-19.392 277.568-75.712 76.288-65.088 35.008-137.792-13.568-143.616-48.448-5.824-102.784 107.008-209.6 108.672-110.080 1.728-184.448-114.56-48.576-147.584 135.936-33.024 281.472-46.592 333.952-170.816s-81.472-256.192-231.040-264z" />
<glyph unicode="&#xe906;" glyph-name="icq" horiz-adv-x="1005" d="M362.965 932.018c-32 7.008-58.017 4-84.993-10.016-30.016-19.008-48.001-48.001-55.009-88.001-7.008-42.016 0-82.017 22.016-123.009l10.016-14.016-35.008 11.008c-43.009 10.016-84.001 4.992-124.001-16.992-42.016-22.016-68.001-52.001-84.993-94.017-16-40-15.008-79.009 6.016-115.009 8-16 20.992-28.992 32.992-38.016 16.992-16.992 39.008-27.008 64.993-32l10.016-3.008-22.016-18.016c-20-18.016-32-39.008-39.008-60.993-7.008-26.016-4-52.001 10.016-76.001 8-12 15.008-22.016 26.016-28.992 12-10.016 26.016-18.016 44.001-19.008 31.008-7.008 64.993-7.008 100.993 4l-26.016-43.009-8-19.008c-14.016-46.017-10.016-86.017 12-128.001 10.016-16 22.016-31.008 32.992-44.001 18.016-16 39.008-26.016 64.993-32.992 43.009-11.008 87.009-10.016 128.994 12 40 20.992 66.017 56.001 79.009 99.009l0.992 8.992c28-30.016 54.017-51.009 83.009-58.017 28.992-8 58.017-7.008 83.009 10.016 24.992 15.008 42.016 39.008 51.009 70.017 7.008 31.008 7.008 63.009 0 99.009 14.016-10.016 28.992-16.992 46.017-20.992 46.017-15.008 87.009-12.992 127.009 8 39.008 22.016 64.993 56.993 78.017 100.993 12 44.001 8.992 84.993-12.992 126.017l-7.008 11.008c-12 18.016-23.008 35.008-40 47.009-15.008 10.016-32 16.992-48.001 24 44.993 22.016 76.001 52.001 91.009 91.009 10.016 32 7.008 58.017-7.008 84.001v3.008c-18.016 28.992-40.992 47.009-76.993 58.017-22.016 4-46.017 4-68.001 2.016l-47.009-10.016 16 36c14.016 47.009 10.016 91.009-15.008 132.994l-4 7.008c-22.016 36.992-54.017 58.017-96.993 70.017-44.993 11.008-87.009 7.008-127.009-15.008s-68.993-55.009-82.017-98.017v-3.008l-2.016-10.016-4.992 10.016-15.008 26.016c-23.008 36-52.001 58.017-88.001 68.001zM730.97 845.009c7.008-14.016 12-31.008 12-50.017l-4.992-32c-4.992-16-12.992-30.016-20.992-43.009l-130.018-159.010c-12.992 10.016-28 16.992-42.016 24.992l-14.016 163.010-2.016 56.993 2.016 15.008c7.008 28.992 27.008 50.017 52.993 64.993s55.009 16.992 82.017 7.008c31.008-7.008 52.001-23.008 64.993-48.001zM283.956 817.008c0.992 26.016 11.008 43.009 28.992 52.993 8 7.008 20.992 7.008 32.992 0.992 26.016-7.008 47.009-26.016 64.993-62.017 7.008-14.016 14.016-28.992 16.992-46.017l28.992-170.018-22.016-7.008-128.001 140.002-8 14.016c-11.008 26.016-18.016 51.009-15.008 76.993zM205.972 648.014l39.008-16 127.009-92.993c-12-14.016-19.008-28.992-23.008-43.009l-208.002-26.016-15.008 3.008c-26.016 4-43.009 16-55.009 36.992s-11.008 44.001-2.016 64.993c10.016 28 28 50.017 56.001 60.993 26.016 15.008 52.001 19.008 80.993 12zM792.954 645.998c26.016 12 51.009 15.008 76.993 12 24-3.008 42.016-15.008 50.017-32l6.016-19.008-3.008-14.016c-10.016-26.016-32-46.017-68.001-62.017-14.016-7.008-30.016-10.016-47.009-12.992l-178.018-22.016-3.008 10.016-3.008 4 6.016 8 146.018 120.993 16.992 7.008zM424.95 509.005c16.992 16 40.992 26.016 68.001 26.016 26.016 0 51.009-10.016 66.017-26.016 20.992-20 28.992-42.016 28.992-68.001s-8-50.017-28.992-68.001c-16.512-17.728-39.936-28.832-65.953-28.992h-0.032c-27.008 0-51.009 11.008-68.001 28.992-19.008 18.016-28.992 42.016-28.992 68.001s10.016 48.001 28.992 68.001zM457.974 300.010c3.008-48.993 8-100.993 15.008-158.018v-56.993l-2.016-15.008c-10.016-26.016-27.008-48.001-52.993-59.009-26.016-14.016-52.993-16.992-79.009-10.016-28.992 7.008-51.009 24-63.009 48.001-7.008 14.016-12.992 31.008-12.992 48.993l8 32.992c3.008 14.016 10.016 28.992 20.992 40l122.017 144.994c14.016-8 28-15.008 44.001-16zM569.976 317.994l60.001-62.017 38.016-46.017 7.008-14.016c12.992-24.992 20-48.001 16.992-75.009-3.008-26.016-11.008-44.993-28.992-52.001-10.016-8-20.992-8-32.992-6.016-27.008 7.008-48.993 28.992-64.993 63.009l-16.992 48.001-22.016 126.017 24.992 8 19.008 10.016zM633.977 408.012l164.002 14.016 56.993 2.016 15.008-2.016c20.992-7.008 42.016-20 52.993-40.992 15.008-16 22.016-38.016 22.016-63.009l-4-28c-8-28.992-24.992-51.009-50.017-62.017-13.824-8.448-30.56-13.44-48.449-13.44-11.296 0-22.144 1.984-32.192 5.664l0.64-0.192c-18.016 4.992-28.992 12-39.008 23.008l-152.002 126.017 10.016 22.016 4 16.992z" />
<glyph unicode="&#xe907;" glyph-name="msn" horiz-adv-x="757" d="M756 88c-13 80-87 167-87 167-17 21-37 41-53 56-9-18-28-53-48-81-17-30-61-63-78-71-3-1-19-8-41-8-26 0-50 10-70 27 32.159-81.166 83.243-148.968 148.009-200.243l0.991-0.757c39-26 77-36 77-36 29-8 57-6 84 2 42 13 59 59 59 59 15 39 8 86 8 86zM690 718c-2 105-54 174-54 174-23 32-54 49-54 49-33 19-69 19-69 19-14 0-26-2-38-6-80-22-136-117-136-117-45-79-53-179-53-179-0.521-11.814-0.818-25.671-0.818-39.598 0-115.607 20.456-226.435 57.946-329.064l-2.128 6.662 9-21c22-46 49-70 49-70 37-33 77-15 77-15 35 16 67 61 64 60 26 35 50 84 50 85 40 80 68 185 68 185 33 118 32 198 32 198zM386 43c-2 33-23 94-23 94l-13 33c-5.545-21.43-24.708-37.002-47.509-37.002-0.173 0-0.345 0.001-0.518 0.003h0.026c-9 0-35 3-72 36l-27 25v-4c16-106 76-178 76-178 42-54 77-47 77-47 37 7 30 78 30 78zM321 219c0 9-2 23-11 49h1c-14 50-51 126-53 129-49 104-77 149-92 171-16 21-65 70-65 70-37 32-64 32-63 32-6 0-11-1-17-4-28-14-20-79-20-79 6-41 28-91 28-91 40-94 138-211 138-211l30-36c27-30 56-55 56-55 31-27 49-27 49-27 24 0 20 43 19 52z" />
<glyph unicode="&#xe908;" glyph-name="jabber" horiz-adv-x="683" d="M230 960l-13-1c-19-2-37-2-56-5-52.434-8.709-99.475-24.754-142.622-47.244l2.622 1.244c-4-2-11-4-14-7-2-2-2-6-2-8l-2-20c-3-26-5-53-1-79 1-8 4-23 14-25 16-2 28 17 36 28 18 25 39 48 68 59 35 14 75 17 112 19 103 7 217-12 293-88 11-11 21-22 30-35 39.382-59.314 62.836-132.167 62.836-210.498 0-13.207-0.667-26.257-1.968-39.121l0.133 1.619c-11-48-40-90-73-125-22-24-48-46-74-66-15-11-32-21-46-33-16-14-29-32-39-50-27-51-35-111-27-168l6-34c1-4 1-9 3-12 4-5 16-8 22-9 6 0 11 5 12 11 3 10 2 21 0 31-3 21-6 42-5 63 1 39 16 75 43 104 28 28 65 45 96 69 63 48 119 114 141 192 8 27 10 57 7 86-5 36-18 72-30 106-33.97 109.495-108.093 197.936-204.744 249.892l-2.256 1.108c-56.277 20.955-121.374 34.912-189.149 38.913l-1.851 0.087-24 1zM177 528c-11 0-21-2-30-8-13-8-20-22-25-36-8-29-4-61 2-90l6-27c1-3 1-8 3-11 4-4 13-6 19-5 16 3 12 30 11 42-1 27-9 53-1 80 3 11 9 24 21 29 10 5 21-1 25-11 7-16 5-35 9-52 2-6 3-12 6-17 1-2 2-5 4-5 5 0 13 9 17 13 13 10 26 22 41 30 7 3 19 10 26 3l4-5c9-14 0-24-5-36-7-17-14-33-25-47-9-13-21-24-28-37-4-9-7-19-5-29 2-8 8-13 16-11 6 2 10 7 14 12l18 26c12 17 26 33 36 51 12 21 18 46 18 71 0 20-7 51-31 55h-14c-20.333-6.517-37.559-17.933-50.902-32.888l-0.098-0.112c-6-7-11-15-19-21 0 15-3 31-11 44-11.424 15.249-29.451 25.012-49.759 25.012-0.437 0-0.872-0.005-1.306-0.013l0.065 0.001zM58 286h-3c-20-3-26-19-23-37 5-24 24-42 42-56 42.181-32.069 95.585-51.375 153.499-51.375 29.167 0 57.19 4.897 83.293 13.913l-1.792-0.538c11 5 23 24 7 32l-7 2c-7 1-14-1-20-3l-34-9c-35-5-72 3-101 23-23 17-42 38-59 61-10 12-20 26-37 25zM37 172h-8c-6-1-11-1-16-4-9-7 1-20 6-26 56.209-60.911 134.423-100.785 221.943-106.94l1.057-0.060c18-2 36 0 54 3 6 1 14 1 20 4 17 8 12 40-3 47-6 3-17-1-24-2-16-2-33-2-49-2-64.697 2.849-123.273 26.922-169.459 65.372l0.459-0.372c-8 7-15 18-25 21l-9 1zM40 76h-1c-7-1-13-5-18-11l-8-11c-11-26 17-51 37-63 21-14 45-24 69-32 54-20 117-32 173-15 17 5 33 15 45 27 7 7 12 18-1 23-7 2-16-5-23-7-16-7-32-11-49-14-23-2-43 3-65 8-18 5-37 9-55 16-15 6-30 12-43 22-4 3-9 5-12 9-11 12-19 26-31 37-4 5-11 11-18 11z" />
<glyph unicode="&#xe909;" glyph-name="instagram" d="M512.001 960c-139.052 0-156.488-0.589-211.098-3.081-54.497-2.486-91.716-11.142-124.283-23.797-33.669-13.085-62.221-30.592-90.686-59.055s-45.971-57.019-59.055-90.687c-12.656-32.567-21.312-69.786-23.799-124.283-2.491-54.61-3.080-72.046-3.080-211.098 0-139.050 0.589-156.486 3.080-211.096 2.487-54.497 11.142-91.716 23.799-124.283 13.084-33.669 30.591-62.222 59.055-90.688 28.465-28.464 57.017-45.971 90.686-59.055 32.568-12.656 69.787-21.312 124.283-23.797 54.61-2.491 72.046-3.081 211.098-3.081 139.050 0 156.486 0.59 211.096 3.081 54.497 2.486 91.716 11.142 124.283 23.797 33.669 13.084 62.222 30.592 90.687 59.055 28.464 28.465 45.971 57.019 59.055 90.688 12.656 32.567 21.312 69.786 23.797 124.283 2.492 54.61 3.081 72.046 3.081 211.096 0 139.052-0.589 156.488-3.081 211.098-2.486 54.497-11.142 91.716-23.797 124.283-13.085 33.669-30.592 62.224-59.055 90.687-28.466 28.464-57.019 45.971-90.687 59.055-32.567 12.656-69.786 21.312-124.283 23.797-54.61 2.492-72.046 3.081-211.096 3.081zM512.001 867.748c136.709 0 152.903-0.522 206.891-2.986 49.92-2.276 77.030-10.617 95.071-17.629 23.899-9.288 40.955-20.383 58.87-38.298 17.918-17.918 29.012-34.973 38.3-58.872 7.012-18.042 15.353-45.152 17.629-95.071 2.463-53.988 2.986-70.183 2.986-206.893s-0.522-152.903-2.986-206.891c-2.276-49.92-10.617-77.030-17.629-95.071-9.288-23.899-20.383-40.955-38.3-58.87-17.916-17.918-34.971-29.012-58.87-38.3-18.042-7.012-45.152-15.352-95.071-17.629-53.98-2.464-70.172-2.986-206.891-2.986-136.721 0-152.911 0.522-206.893 2.986-49.92 2.276-77.030 10.617-95.071 17.629-23.899 9.288-40.955 20.383-58.87 38.3s-29.012 34.971-38.3 58.87c-7.012 18.042-15.352 45.152-17.629 95.071-2.463 53.988-2.985 70.183-2.985 206.891 0 136.711 0.522 152.905 2.985 206.893 2.278 49.92 10.618 77.030 17.629 95.071 9.288 23.899 20.383 40.955 38.299 58.87 17.917 17.918 34.972 29.012 58.871 38.3 18.042 7.012 45.152 15.353 95.071 17.629 53.988 2.463 70.183 2.986 206.893 2.986zM512.001 277.332c-94.258 0-170.668 76.41-170.668 170.666 0 94.258 76.41 170.668 170.668 170.668 94.256 0 170.666-76.41 170.666-170.668 0-94.256-76.41-170.666-170.666-170.666zM512.001 710.918c-145.208 0-262.92-117.712-262.92-262.92 0-145.206 117.712-262.918 262.92-262.918 145.206 0 262.918 117.712 262.918 262.918 0 145.208-117.712 262.92-262.918 262.92zM846.748 721.306c0-33.933-27.508-61.439-61.441-61.439-33.931 0-61.439 27.506-61.439 61.439s27.508 61.441 61.439 61.441c33.933 0 61.441-27.508 61.441-61.441z" />
<glyph unicode="&#xe90a;" glyph-name="arrow-down" d="M782.784 425.009l-206.826-248.152v719.162c0 35.327-28.655 63.982-63.982 63.982s-63.982-28.655-63.982-63.982v0-719.21l-206.826 248.152c-11.808 14.112-29.471 23.039-49.198 23.039-35.327 0-63.982-28.655-63.982-64.030 0-15.648 5.616-29.951 14.88-41.039l-0.096 0.096 320.006-383.988c11.808-14.112 29.471-23.039 49.198-23.039s37.343 8.928 49.102 22.943l0.096 0.096 320.006 383.988c9.216 10.992 14.832 25.343 14.832 40.943 0 35.327-28.655 64.030-64.030 64.030-19.727 0-37.343-8.928-49.102-22.943l-0.096-0.096z" />
<glyph unicode="&#xe90b;" glyph-name="arrow-left" d="M960.078 512.089h-719.614l248.292 206.942c13.495 11.814 21.948 29.055 21.948 48.266 0 35.347-28.671 64.018-64.018 64.018-15.128 0-29.055-5.235-40.005-14.023l0.144 0.096-384.204-320.186c-13.879-11.958-22.62-29.536-22.62-49.178s8.741-37.22 22.524-49.13l0.096-0.096 384.204-320.186c10.854-8.693 24.733-13.927 39.861-13.927 35.347 0 64.018 28.671 64.018 64.018 0 19.21-8.452 36.451-21.9 48.218l-0.096 0.048-248.34 206.942h719.614c35.347 0 64.018 28.671 64.018 64.018s-28.671 64.018-64.018 64.018v0z" />
<glyph unicode="&#xe90c;" glyph-name="arrow-right" d="M1001.476 497.25l-384.204 320.186c-10.95 9.077-25.213 14.6-40.678 14.6-35.347 0-64.018-28.671-64.018-64.018 0-19.594 8.789-37.124 22.62-48.842l0.096-0.096 248.34-206.942h-719.614c-35.347 0-64.018-28.671-64.018-64.018s28.671-64.018 64.018-64.018v0h719.614l-248.34-206.942c-14.12-11.814-23.004-29.44-23.004-49.178 0-35.347 28.671-64.018 64.018-64.018 15.656 0 29.968 5.619 41.11 14.936l-0.096-0.096 384.204 320.186c13.831 12.006 22.476 29.584 22.476 49.178s-8.693 37.22-22.428 49.13l-0.096 0.048z" />
<glyph unicode="&#xe90d;" glyph-name="arrow-up" d="M881.396 553.195l-320.171 384.186c-11.958 13.879-29.534 22.619-49.176 22.619s-37.218-8.74-49.128-22.571l-0.096-0.096-320.171-384.186c-8.692-10.853-13.927-24.732-13.927-39.859 0-35.345 28.67-64.015 64.015-64.015 19.209 0 36.45 8.452 48.215 21.899l0.048 0.096 206.932 248.328v-719.581c0-35.345 28.67-64.015 64.015-64.015s64.015 28.67 64.015 64.015v0 719.581l206.932-248.28c11.814-13.543 29.054-22.043 48.359-22.043 35.345 0 64.015 28.67 64.015 64.015 0 15.175-5.283 29.102-14.119 40.099l0.096-0.144z" />
<glyph unicode="&#xe90e;" glyph-name="chevron-down" d="M918.259 688.544l-406.307-348.325-406.307 348.325c-11.136 9.6-25.727 15.408-41.663 15.408-35.327 0-63.982-28.655-63.982-63.982 0-19.391 8.64-36.767 22.271-48.526l0.096-0.048 447.97-383.988c11.136-9.6 25.727-15.408 41.663-15.408s30.527 5.856 41.759 15.504l-0.096-0.048 447.97 383.988c13.728 11.808 22.367 29.183 22.367 48.574 0 35.327-28.655 63.982-63.982 63.982-15.936 0-30.527-5.856-41.759-15.504l0.096 0.048z" />
<glyph unicode="&#xe90f;" glyph-name="chevron-left" d="M404.53 448.049l349.014 407.223c9.044 10.968 14.48 25.16 14.48 40.602 0 35.407-28.72 64.126-64.126 64.126-18.906 0-35.888-8.178-47.626-21.215l-0.048-0.048-384.854-448.98c-9.621-11.161-15.442-25.785-15.442-41.757s5.869-30.596 15.538-41.853l-0.048 0.096 384.854-448.98c11.786-13.085 28.768-21.263 47.674-21.263 35.407 0 64.126 28.72 64.126 64.126 0 15.442-5.484 29.634-14.576 40.698l0.096-0.096z" />
<glyph unicode="&#xe910;" glyph-name="chevron-right" d="M752.737 490.004l-384.258 448.285c-11.816 13.353-28.963 21.711-48.080 21.711-35.352 0-64.027-28.675-64.027-64.027 0-15.659 5.62-30.020 14.986-41.164l-0.096 0.096 348.522-406.593-348.522-406.593c-9.606-11.143-15.418-25.745-15.418-41.692 0-35.352 28.675-64.027 64.027-64.027 19.405 0 36.793 8.646 48.561 22.287l0.048 0.096 384.258 448.285c9.558 11.143 15.418 25.697 15.418 41.644s-5.86 30.549-15.514 41.788l0.048-0.096z" />
<glyph unicode="&#xe911;" glyph-name="chevron-up" d="M1001.727 304.591l-448.012 384.024c-11.137 9.601-25.73 15.409-41.667 15.409s-30.53-5.856-41.763-15.505l0.096 0.048-448.012-384.024c-13.729-11.809-22.369-29.186-22.369-48.579 0-35.33 28.658-63.988 63.988-63.988 15.937 0 30.53 5.856 41.763 15.505l-0.096-0.048 406.345 348.358 406.345-348.358c11.137-9.601 25.73-15.409 41.667-15.409 35.33 0 63.988 28.658 63.988 63.988 0 19.393-8.641 36.77-22.273 48.531l-0.096 0.048z" />
<glyph unicode="&#xe912;" glyph-name="close" d="M605.804 447.97l398.701 398.733c25.951 25.951 25.951 67.869 0 93.82s-67.869 25.919-93.788 0l-398.733-398.733-398.701 398.733c-25.951 25.919-67.869 25.919-93.82 0s-25.951-67.869 0-93.82l398.701-398.733-398.701-398.733c-25.951-25.951-25.951-67.869 0-93.788 12.927-12.927 29.919-19.423 46.91-19.423s33.95 6.496 46.91 19.423l398.701 398.733 398.733-398.733c12.927-12.927 29.919-19.423 46.91-19.423s33.95 6.496 46.91 19.423c25.951 25.951 25.951 67.869 0 93.788z" />
<glyph unicode="&#xe913;" glyph-name="tick" d="M363.938-46.091c1.86-1.488 2.976-3.534 4.93-4.93 2.79-1.86 5.953-2.232 8.929-3.534 3.534-1.674 6.976-3.255 10.696-4.279 3.628-0.93 7.162-1.395 10.883-1.674 5.302-0.558 10.417-0.558 15.626 0.186 2.139 0.372 4.186 0.93 6.325 1.488 6.418 1.581 12.371 4.093 18.231 7.627 1.023 0.651 1.86 1.395 2.883 2.046 3.814 2.604 7.906 4.558 11.162 8.092 2.325 2.511 3.348 5.767 5.209 8.557 0.093 0.093 0.279 0.186 0.279 0.279l554.264 888.366c19.719 30.043 11.255 70.411-18.882 90.129s-70.411 11.255-90.129-18.882l-511.943-820.466-283.131 275.411c-26.416 24.462-67.527 22.881-91.99-3.534-24.369-26.416-22.788-67.62 3.628-91.99l340.613-331.405c0.651-0.651 1.581-0.837 2.418-1.488z" />
<glyph unicode="&#xe914;" glyph-name="menu" d="M51.2 396.8h921.6c28.262 0 51.2 22.938 51.2 51.2s-22.938 51.2-51.2 51.2h-921.6c-28.262 0-51.2-22.938-51.2-51.2s22.938-51.2 51.2-51.2zM51.2 704h921.6c28.262 0 51.2 22.938 51.2 51.2s-22.938 51.2-51.2 51.2h-921.6c-28.262 0-51.2-22.938-51.2-51.2s22.938-51.2 51.2-51.2zM51.2 89.6h921.6c28.262 0 51.2 22.938 51.2 51.2s-22.938 51.2-51.2 51.2h-921.6c-28.262 0-51.2-22.938-51.2-51.2s22.938-51.2 51.2-51.2z" />
<glyph unicode="&#xe915;" glyph-name="filter-grip" d="M236 960v-1018.016h142.016v1018.016zM646.016 960v-1018.016h142.016v1018.016z" />
<glyph unicode="&#xe916;" glyph-name="ellipsis-h" d="M278.924 517.405v-138.81q0-29.303-20.377-49.68t-49.68-20.377h-138.81q-29.303 0-49.68 20.377t-20.377 49.68v138.81q0 29.303 20.377 49.68t49.68 20.377h138.81q29.303 0 49.68-20.377t20.377-49.68zM652.114 517.405v-138.81q0-29.303-20.377-49.68t-49.68-20.377h-140.114q-29.303 0-49.68 20.377t-20.377 49.68v138.81q0 29.303 20.377 49.68t49.68 20.377h140.114q29.303 0 49.68-20.377t20.377-49.68zM1024 517.405v-138.81q0-29.303-20.377-49.68t-49.68-20.377h-138.81q-29.303 0-49.68 20.377t-20.377 49.68v138.81q0 29.303 20.377 49.68t49.68 20.377h138.81q29.303 0 49.68-20.377t20.377-49.68z" />
<glyph unicode="&#xe917;" glyph-name="info" d="M0 862v-70h1024v70zM0 478v-72h1024v72zM0 108v-74h534v74z" />
<glyph unicode="&#xe918;" glyph-name="plus" d="M568.879 903.12c0 31.405-25.474 56.879-56.879 56.879s-56.879-25.474-56.879-56.879v-398.241h-398.241c-31.405 0-56.879-25.474-56.879-56.879s25.474-56.879 56.879-56.879h398.241v-398.241c0-31.405 25.474-56.879 56.879-56.879s56.879 25.474 56.879 56.879v398.241h398.241c31.405 0 56.879 25.474 56.879 56.879s-25.474 56.879-56.879 56.879h-398.241z" />
<glyph unicode="&#xe919;" glyph-name="minus" d="M56.889 391.111h910.222c31.403 0 56.889 25.486 56.889 56.889s-25.486 56.889-56.889 56.889h-910.222c-31.403 0-56.889-25.486-56.889-56.889s25.486-56.889 56.889-56.889z" />
<glyph unicode="&#xe91a;" glyph-name="star-half" d="M1020.844 568.364c-7.561 23.195-27.616 40.111-51.772 43.571l-276.16 40.111-123.471 250.274c-10.829 21.913-33.062 35.753-57.475 35.753s-46.646-13.84-57.475-35.753l-123.471-250.21-276.16-40.111c-24.156-3.524-44.211-20.44-51.708-43.635-7.561-23.195-1.281-48.632 16.211-65.676l199.848-194.786-47.159-275.071c-4.101-24.028 5.767-48.312 25.502-62.665 11.085-8.137 24.284-12.238 37.612-12.238 10.188 0 20.44 2.435 29.795 7.369l247.007 129.879 247.007-129.879c9.355-4.934 19.607-7.369 29.795-7.369 13.263 0 26.527 4.101 37.676 12.238 19.735 14.353 29.602 38.637 25.502 62.665l-47.159 275.071 199.848 194.786c17.492 17.044 23.772 42.481 16.211 65.676zM735.906 330.263l52.861-308.262-276.801 145.513v706.484l138.401-280.453 309.479-44.98-223.94-218.301z" />
<glyph unicode="&#xe91b;" glyph-name="star-off" d="M1020.886 568.369c-7.561 23.196-27.617 40.112-51.71 43.636l-276.171 40.112-123.54 250.22c-10.829 21.914-33.064 35.755-57.477 35.755s-46.648-13.841-57.477-35.755l-123.476-250.22-276.171-40.112c-24.157-3.524-44.213-20.44-51.71-43.636-7.561-23.196-1.282-48.634 16.211-65.679l199.855-194.793-47.161-275.082c-4.101-24.029 5.767-48.314 25.503-62.667 11.085-8.138 24.285-12.239 37.613-12.239 10.188 0 20.44 2.435 29.796 7.369l247.016 129.884 247.016-129.884c9.355-4.934 19.607-7.369 29.796-7.369 13.264 0 26.528 4.101 37.677 12.239 19.736 14.353 29.603 38.638 25.503 62.667l-47.161 275.082 199.855 194.793c17.429 16.98 23.708 42.483 16.211 65.679zM735.936 330.26l52.863-308.273-276.812 145.518-276.812-145.518 52.863 308.273-223.948 218.31 309.491 44.982 138.406 280.464 138.406-280.464 309.491-44.982-223.948-218.31z" />
<glyph unicode="&#xe91c;" glyph-name="star-on" d="M1020.886 568.369c-7.561 23.196-27.617 40.112-51.71 43.636l-276.171 40.112-123.54 250.22c-10.829 21.914-33.064 35.755-57.477 35.755s-46.648-13.841-57.477-35.755l-123.476-250.22-276.171-40.112c-24.157-3.524-44.213-20.44-51.71-43.636-7.561-23.196-1.282-48.634 16.211-65.679l199.855-194.793-47.161-275.082c-4.101-24.029 5.767-48.314 25.503-62.667 11.085-8.138 24.285-12.239 37.613-12.239 10.188 0 20.44 2.435 29.796 7.369l247.016 129.884 247.016-129.884c9.355-4.934 19.607-7.369 29.796-7.369 13.264 0 26.528 4.101 37.677 12.239 19.736 14.353 29.603 38.638 25.503 62.667l-47.161 275.082 199.855 194.793c17.429 16.98 23.708 42.483 16.211 65.679z" />
<glyph unicode="&#xe91d;" glyph-name="rating" horiz-adv-x="1119" d="M314 593l-98-215-216-20 163-164-45-228 195 119 195-119-44 228 163 164-215 20-98 215zM906 360l-66-146-146-13 110-111-30-154 132 81 132-81-30 154 111 111-146 14-67 145zM671 960l-80-176-176-16 133-134-37-186 160 97 159-97-36 186 133 134-176 16-80 176z" />
<glyph unicode="&#xe91e;" glyph-name="comment" d="M914.276 960h-804.551c-60.606 0-109.725-49.118-109.725-109.725v-585.134c0-60.606 49.118-109.725 109.725-109.725h129.82l-19.903-178.842c-2.208-20.063 12.256-38.143 32.351-40.351 10.368-1.152 20.735 2.208 28.479 9.184l233.401 210.009h400.403c60.606 0 109.725 49.118 109.725 109.725v585.134c0 60.606-49.118 109.725-109.725 109.725zM950.851 265.174c0-20.191-16.383-36.575-36.575-36.575h-414.451c-9.024 0-17.759-3.36-24.479-9.408l-172.379-155.163 13.792 123.932c2.24 20.063-12.224 38.175-32.287 40.415-1.344 0.16-2.72 0.224-4.064 0.224h-170.683c-20.191 0-36.575 16.383-36.575 36.575v585.134c0 20.191 16.383 36.575 36.575 36.575h804.551c20.191 0 36.575-16.383 36.575-36.575v-585.134z" />
<glyph unicode="&#xe91f;" glyph-name="home" d="M1004.205 590.866l-460.794 358.383c-8.601 6.72-19.545 10.752-31.411 10.752s-22.848-4.032-31.526-10.829l0.115 0.077-460.794-358.383c-12.096-9.446-19.776-24.038-19.776-40.435 0 0 0 0 0-0.038v0-563.206c0-28.262 22.925-51.187 51.187-51.187v0h921.588c28.262 0 51.187 22.925 51.187 51.187v0 563.206c0 0 0 0 0 0.038 0 16.397-7.68 30.95-19.661 40.319l-0.115 0.077zM409.588 38.412v307.196h204.785v-307.196zM921.608 38.412h-204.785v358.383c0 28.262-22.925 51.187-51.187 51.187v0h-307.196c-28.262 0-51.187-22.925-51.187-51.187v0-358.383h-204.785v486.944l409.608 318.562 409.608-318.562z" />
<glyph unicode="&#xe920;" glyph-name="search" d="M948.361 214.359l-114.359 114.4c31.847 58.515 50.583 128.118 50.583 202.132 0 236.974-192.096 429.11-429.11 429.11s-429.11-192.096-429.11-429.11c0-236.974 192.096-429.11 429.11-429.11 45.97 0 90.281 7.244 131.841 20.638l-3.035-0.85 135.361-135.402c151.427-153.248 379.052 79.801 228.718 228.192zM131.094 533.398c0 178.782 144.952 323.734 323.734 323.734s323.734-144.952 323.734-323.734c0-178.782-144.952-323.734-323.734-323.734v0c-178.701 0.202-323.532 145.033-323.734 323.734v0zM796.206 62.204l-107.804 107.844c31.119 20.638 58.191 43.421 82.431 68.874l0.202 0.202 101.288-101.288c9.388-9.672 15.216-22.864 15.216-37.432 0-29.622-23.997-53.619-53.619-53.619-14.689 0-28.003 5.908-37.675 15.458v0z" />
<glyph unicode="&#xe921;" glyph-name="cart" d="M938.862 228.231l-56.449 395.069c-11.328 74.805-74.997 131.562-152.029 131.907h-13.632c0 113.129-91.701 204.792-204.792 204.792s-204.792-91.701-204.792-204.792v0h-13.594c-77.032-0.346-140.739-57.064-151.914-131.024l-0.115-0.845-56.449-395.107c-1.651-10.906-2.573-23.463-2.573-36.25 0-141.392 114.588-255.981 255.981-255.981 0 0 0 0 0 0h346.953c0 0 0 0 0 0 141.392 0 256.019 114.627 256.019 256.019 0 12.788-0.922 25.345-2.726 37.633l0.154-1.382zM511.959 857.623c56.526-0.077 102.339-45.889 102.415-102.415v0h-204.792c0.077 56.526 45.889 102.339 102.415 102.415v0zM801.464 91.37c-28.302-32.526-69.736-52.993-115.971-52.993-0.038 0-0.038 0-0.077 0h-346.914c0 0 0 0 0 0-84.828 0-153.604 68.776-153.604 153.604 0 7.68 0.576 15.207 1.651 22.541l-0.115-0.845 56.449 395.146c3.763 24.922 24.999 43.815 50.651 43.969h13.594v-153.604h102.415v153.604h204.792v-153.604h102.415v153.604h13.594c25.69-0.115 46.926-19.047 50.612-43.7l56.488-395.376c0.998-6.528 1.536-14.093 1.536-21.773 0-38.555-14.208-73.807-37.71-100.764l0.154 0.192z" />
<glyph unicode="&#xe922;" glyph-name="user" d="M895.952-63.968h-768c-23.552 0-42.656 19.104-42.656 42.656v0 42.336c0.256 137.856 94.4 253.632 221.856 286.848l2.080 0.448c18.4 4.608 31.84 20.896 32.096 40.32v42.944l-47.648 47.616c-23.264 22.848-37.664 54.624-37.664 89.792 0 0.032 0 0.064 0 0.064v0 176.544c1.664 137.184 110.304 248.448 246.24 254.368l0.544 0.032c0.096 0 0.224 0 0.352 0 146.176 0 264.672-118.4 264.864-264.512v-166.432c-0.032-35.424-14.656-67.424-38.144-90.336l-47.168-47.136v-42.912c0.256-19.488 13.728-35.776 31.84-40.288l0.288-0.064c129.504-33.728 223.584-149.504 223.872-287.296v-42.368c0-23.552-19.104-42.656-42.656-42.656v0zM170.608 21.376h682.656c-0.416 98.112-67.52 180.416-158.304 203.968l-1.472 0.32c-55.552 14.4-95.968 63.968-96.224 123.008v60.608c0 11.776 4.768 22.432 12.512 30.176l60.16 60.128c7.776 7.456 12.64 17.92 12.672 29.504v166.4c0 0.064 0 0.16 0 0.256 0 98.112-78.944 177.792-176.8 178.944h-0.096c-90.88-3.744-163.264-77.76-164.448-168.928v-176.672c0-0.032 0-0.032 0-0.064 0-11.328 4.64-21.6 12.16-28.928v0l60.672-60.576c7.712-7.712 12.512-18.4 12.512-30.176v-60.576c-0.256-59.072-40.64-108.64-95.296-122.848l-0.896-0.192c-92.288-23.872-159.424-106.208-159.84-204.288v-0.032z" />
<glyph unicode="&#xe923;" glyph-name="address" d="M512 960c-211.968-0.256-383.744-172.032-384-383.968v-0.032c0-270.56 339.392-613.056 353.824-627.52 7.776-7.616 18.432-12.32 30.176-12.32s22.4 4.704 30.176 12.32v0c14.432 14.432 353.824 356.928 353.824 627.52-0.256 211.968-172.032 383.744-383.968 384h-0.032zM512 40.704c-81.28 88.48-298.656 343.040-298.656 535.296 0 164.96 133.728 298.656 298.656 298.656s298.656-133.728 298.656-298.656v0c0-192.256-217.376-446.816-298.656-535.296zM531.072 742.144c-5.568 2.848-12.128 4.512-19.072 4.512s-13.536-1.664-19.328-4.608l0.256 0.096-170.656-85.344 38.176-76.32 23.584 11.776v-101.632c0-23.552 19.104-42.656 42.656-42.656v0h170.656c23.552 0 42.656 19.104 42.656 42.656v0 101.632l23.584-11.776 38.176 76.32zM554.656 634.976v-101.632h-85.344v101.632l42.656 21.344z" />
<glyph unicode="&#xe924;" glyph-name="message" d="M904 824h-784c-66.176 0-120-53.824-120-120v-512c0-66.176 53.824-120 120-120h784c66.176 0 120 53.824 120 120v512c0 66.176-53.824 120-120 120zM944 192c0-22.048-17.952-40-40-40h-784c-22.048 0-40 17.952-40 40v512c0 22.048 17.952 40 40 40h784c22.048 0 40-17.952 40-40v-512zM937.216 774.112l-425.216-316.288-425.216 316.288-47.744-64.192 472.96-351.776 472.96 351.776z" />
<glyph unicode="&#xe925;" glyph-name="box" d="M927.616 930.781c-7.052 17.28-23.738 29.219-43.218 29.219 0 0-0.035 0-0.035 0h-744.724c0 0-0.035 0-0.035 0-19.479 0-36.131-11.939-43.078-28.905l-0.105-0.314-93.104-232.742c-2.095-5.132-3.316-11.066-3.316-17.315v-698.19c0-25.693 20.841-46.534 46.534-46.534v0h930.931c25.693 0 46.534 20.841 46.534 46.534v0 698.19c0 6.249-1.222 12.183-3.421 17.629l0.105-0.314zM171.163 866.932h681.713l55.855-139.638h-793.423zM93.105 29.104v605.086h837.828v-605.086zM418.915 215.276h-186.172c-25.693 0-46.534-20.841-46.534-46.534s20.841-46.534 46.534-46.534v0h186.172c25.693 0 46.534 20.841 46.534 46.534s-20.841 46.534-46.534 46.534v0z" />
<glyph unicode="&#xe926;" glyph-name="wallet" d="M728.298 916.096h-605.613c-67.646 0-122.684-55.038-122.684-122.684s55.038-122.684 122.684-122.684v77.47c-24.927 0-45.183 20.287-45.183 45.183s20.287 45.183 45.183 45.183h566.862v-129.116h77.47v167.867c0 21.407-17.343 38.751-38.751 38.751zM985.25 748.23h-862.565c-24.927 0-45.183 20.287-45.183 45.183 0 21.407-17.343 38.751-38.751 38.751s-38.751-17.343-38.751-38.751v-690.826c0-67.646 55.038-122.684 122.684-122.684h862.565c21.407 0 38.751 17.343 38.751 38.751v690.826c0 21.407-17.343 38.751-38.751 38.751zM946.531 57.403h-823.814c-24.927 0-45.183 20.287-45.183 45.183v576.782c13.984-5.568 29.247-8.64 45.183-8.64h823.814v-613.357zM812.232 293.716c-34.207 0-61.982 27.807-61.982 61.982s27.807 61.982 61.982 61.982h171.739v77.47h-171.739c-76.894 0-139.484-62.558-139.484-139.452s62.558-139.452 139.484-139.452h173.019v77.47h-173.019z" />
<glyph unicode="&#xe927;" glyph-name="watchdog" d="M1013.595 478.95c-119.576 164.273-272.521 378.658-501.575 378.658-228.055 0-382.766-215.46-501.575-378.658-6.49-8.486-10.445-19.277-10.445-30.95s3.917-22.464 10.521-31.065l-0.077 0.115c119.576-164.273 272.521-378.658 501.575-378.658 228.055 0 382.766 215.46 501.575 378.658 6.49 8.486 10.406 19.277 10.406 30.95s-3.917 22.464-10.521 31.065l0.077-0.115zM512.020 140.804c-172.030 0-328.623 200.753-399.547 307.196 70.924 106.443 227.517 307.196 399.547 307.196s328.623-200.753 399.547-307.196c-70.924-106.443-227.517-307.196-399.547-307.196zM512.020 652.785c-113.125 0-204.785-91.698-204.785-204.785s91.698-204.785 204.785-204.785c113.125 0 204.785 91.698 204.785 204.785v0c-0.115 113.048-91.736 204.669-204.785 204.785v0zM512.020 345.588c-56.562 0-102.412 45.849-102.412 102.412s45.849 102.412 102.412 102.412c56.562 0 102.412-45.849 102.412-102.412v0c-0.077-56.524-45.887-102.335-102.412-102.412v0z" />
<glyph unicode="&#xe928;" glyph-name="print" d="M925.232 738h-108.832v142.016c0 22.080-17.92 40-40 40h-528.8c-22.080 0-40-17.92-40-40v-142.016h-108.832c-54.464 0-98.752-44.864-98.752-100v-380c0-55.136 44.288-100 98.752-100h108.832v-142.016c0-22.080 17.92-40 40-40h528.8c22.080 0 40 17.92 40 40v142.016h108.832c54.464 0 98.752 44.864 98.752 100v380c0 55.136-44.288 100-98.752 100zM287.6 840.016h448.8v-102.016h-448.8v102.016zM287.6 56.016c0 3.232 0 292.384 0 302.016h448.8c0-9.632 0-298.784 0-302.016h-448.8zM925.232 238h-108.832v120h35.616c22.080 0 40 17.92 40 40s-17.92 40-40 40c-24.096 0-653.088 0-680 0-22.080 0-40-17.92-40-40s17.92-40 40-40h35.616v-120h-108.832c-10.336 0-18.752 8.96-18.752 20v380c0 11.040 8.416 20 18.752 20 13.344 0 811.072 0 826.496 0 10.336 0 18.752-8.96 18.752-20v-380c0-11.040-8.416-20-18.752-20z" />
<glyph unicode="&#xe929;" glyph-name="calc" d="M232.724 960c-77.115 0-139.638-62.523-139.638-139.638v0-744.724c0-77.115 62.523-139.638 139.638-139.638v0h558.552c77.115 0 139.638 62.523 139.638 139.638v0 744.724c0 77.115-62.523 139.638-139.638 139.638v0zM837.81 820.362v-744.724c0-25.694-20.841-46.535-46.535-46.535v0h-558.552c-25.694 0-46.535 20.841-46.535 46.535v0 744.724c0 25.694 20.841 46.535 46.535 46.535v0h558.552c25.694 0 46.535-20.841 46.535-46.535v0zM372.362 541.086c0-25.694-20.841-46.535-46.535-46.535s-46.535 20.841-46.535 46.535c0 25.694 20.841 46.535 46.535 46.535s46.535-20.841 46.535-46.535zM558.535 541.086c0-25.694-20.841-46.535-46.535-46.535s-46.535 20.841-46.535 46.535c0 25.694 20.841 46.535 46.535 46.535s46.535-20.841 46.535-46.535zM744.742 541.086c0-25.694-20.841-46.535-46.535-46.535s-46.535 20.841-46.535 46.535c0 25.694 20.841 46.535 46.535 46.535s46.535-20.841 46.535-46.535zM372.362 354.878c0-25.694-20.841-46.535-46.535-46.535s-46.535 20.841-46.535 46.535c0 25.694 20.841 46.535 46.535 46.535s46.535-20.841 46.535-46.535zM558.535 354.878c0-25.694-20.841-46.535-46.535-46.535s-46.535 20.841-46.535 46.535c0 25.694 20.841 46.535 46.535 46.535s46.535-20.841 46.535-46.535zM744.742 354.878c0-25.694-20.841-46.535-46.535-46.535s-46.535 20.841-46.535 46.535c0 25.694 20.841 46.535 46.535 46.535s46.535-20.841 46.535-46.535zM558.535 168.705c0-25.694-20.841-46.535-46.535-46.535s-46.535 20.841-46.535 46.535c0 25.694 20.841 46.535 46.535 46.535s46.535-20.841 46.535-46.535zM698.173 773.792h-372.38c-25.694 0-46.535-20.841-46.535-46.535s20.841-46.535 46.535-46.535v0h372.38c25.694 0 46.535 20.841 46.535 46.535s-20.841 46.535-46.535 46.535v0z" />
<glyph unicode="&#xe92a;" glyph-name="discount" d="M259.325 531.009c7.947-0.993 15.546-1.341 23.492-1.341 49.021 0 96.006 16.539 134.448 47.68 44.7 36.108 72.861 87.414 79.119 144.679s-10.281 113.24-46.339 157.94c-74.5 92.38-210.24 106.933-302.62 32.432-44.7-36.108-72.861-87.414-79.119-144.679s10.281-113.24 46.339-157.94c36.406-44.7 87.761-72.861 144.679-78.821zM167.292 757.141c3.328 30.793 18.526 58.259 42.366 77.828 20.86 16.887 46.041 25.479 72.514 25.479 4.321 0 8.294-0.348 12.566-0.646 30.793-3.328 58.259-18.526 77.828-42.713s28.161-54.286 24.833-85.079-18.526-58.259-42.366-77.828-54.286-28.161-85.079-24.833-58.259 18.526-77.828 42.713c-19.221 24.188-28.161 54.286-24.833 85.079zM927.84 286.648c-74.5 92.38-210.24 106.933-302.62 32.432-44.7-36.108-72.861-87.414-79.119-144.679s10.281-113.24 46.339-157.94 87.414-72.861 144.679-79.119c7.947-0.993 15.546-1.341 23.492-1.341 49.021 0 96.006 16.539 134.448 47.68 92.38 74.848 107.28 210.587 32.78 302.967zM832.827 61.459c-24.188-19.519-54.286-28.161-85.079-24.833s-58.259 18.526-77.828 42.713-28.161 54.286-24.833 85.079 18.526 58.259 42.366 77.828c21.506 17.234 47.034 25.479 72.514 25.479 33.773 0 67.547-14.9 90.394-43.061 40.081-50.014 32.134-123.174-17.532-163.255zM962.31 824.688c-17.234 21.506-48.326 24.833-69.881 7.599l-825.115-664.89c-21.506-17.234-24.833-48.326-7.599-69.881 9.933-12.268 24.188-18.526 38.74-18.526 10.927 0 21.853 3.626 31.141 10.927l825.115 664.543c21.506 17.532 24.833 48.673 7.599 70.179z" />
<glyph unicode="&#xe92b;" glyph-name="mobile" d="M465.484 75.602h93.104c25.693 0 46.534 20.841 46.534 46.534s-20.841 46.534-46.534 46.534h-93.104c-25.693 0-46.534-20.841-46.534-46.534s20.841-46.534 46.534-46.534zM837.828 820.362c0 37.039-14.697 72.577-40.914 98.724-26.147 26.217-61.685 40.914-98.724 40.914-103.332 0-269.047 0-372.38 0-37.039 0-72.577-14.697-98.724-40.914-26.217-26.147-40.914-61.685-40.914-98.724v-744.724c0-37.039 14.697-72.577 40.914-98.724 26.147-26.217 61.685-40.914 98.724-40.914h372.38c37.039 0 72.577 14.697 98.724 40.914 26.217 26.147 40.914 61.685 40.914 98.724zM744.76 820.362v-744.724c0-12.323-4.887-24.192-13.65-32.92-8.692-8.762-20.562-13.65-32.92-13.65-103.332 0-269.047 0-372.38 0-12.323 0-24.192 4.887-32.92 13.65-8.762 8.692-13.65 20.562-13.65 32.92 0 178.353 0 566.372 0 744.724 0 12.323 4.887 24.192 13.65 32.92 8.692 8.762 20.562 13.65 32.92 13.65h372.38c12.323 0 24.192-4.887 32.92-13.65 8.762-8.692 13.65-20.562 13.65-32.92z" />
<glyph unicode="&#xe92c;" glyph-name="phone" d="M404.66 660.301c23.775 54.559 11.744 118.077-30.303 160.188l-97.085 97.021c-32.255 32.639-78.238 47.775-123.549 40.671-45.855-6.72-85.662-35.071-107.037-76.19-46.943-88.35-59.006-191.067-33.823-287.896 62.046-245.721 399.765-583.696 645.454-645.262 33.151-8.416 67.23-12.704 101.469-12.736 65.022 0.032 129.020 16.032 186.427 46.527 70.814 36.927 98.301 124.317 61.374 195.131-6.784 12.992-15.488 24.895-25.855 35.295l-97.021 97.085c-42.111 42.047-105.661 54.079-160.22 30.303-25.471-10.976-48.671-26.559-68.51-45.919-23.743-23.871-111.261 10.688-198.907 98.301s-122.109 175.131-98.525 198.939c19.455 19.839 35.135 43.071 46.175 68.542zM391.060 326.902c106.717-106.621 250.233-178.523 330.423-98.301 11.808 11.296 25.567 20.383 40.639 26.751 19.327 8.224 41.727 3.84 56.51-11.136l97.021-97.021c11.552-11.424 16.928-27.711 14.432-43.807-2.432-16.512-12.672-30.847-27.519-38.495-67.966-36.511-147.26-45.759-221.786-25.887-211.098 53.247-524.242 366.39-577.488 577.776-19.871 74.59-10.592 153.98 25.919 221.978 7.712 14.752 22.015 24.895 38.495 27.327 2.56 0.416 5.184 0.608 7.776 0.608 13.536 0 26.495-5.408 36.031-15.040l97.021-97.021c14.944-14.752 19.327-37.119 11.136-56.446-6.368-15.136-15.424-29.023-26.751-40.895-80.222-79.998-8.416-223.386 98.205-330.423z" />
<glyph unicode="&#xe92d;" glyph-name="phone-ringing" d="M404.66 660.301c23.775 54.559 11.744 118.077-30.303 160.188l-97.085 97.021c-32.255 32.639-78.238 47.775-123.549 40.671-45.855-6.72-85.662-35.071-107.037-76.19-46.943-88.35-59.006-191.067-33.823-287.896 62.046-245.721 399.765-583.696 645.454-645.262 33.151-8.416 67.23-12.704 101.469-12.736 65.022 0.032 129.020 16.032 186.427 46.527 70.814 36.927 98.301 124.317 61.374 195.131-6.784 12.992-15.488 24.895-25.855 35.295l-97.021 97.085c-42.111 42.047-105.661 54.079-160.22 30.303-25.471-10.976-48.671-26.559-68.51-45.919-23.743-23.871-111.261 10.688-198.907 98.301s-122.109 175.131-98.525 198.939c19.455 19.839 35.135 43.071 46.175 68.542zM391.060 326.902c106.717-106.621 250.233-178.523 330.423-98.301 11.808 11.296 25.567 20.383 40.639 26.751 19.327 8.224 41.727 3.84 56.51-11.136l97.021-97.021c11.552-11.424 16.928-27.711 14.432-43.807-2.432-16.512-12.672-30.847-27.519-38.495-67.966-36.511-147.26-45.759-221.786-25.887-211.098 53.247-524.242 366.39-577.488 577.776-19.871 74.59-10.592 153.98 25.919 221.978 7.712 14.752 22.015 24.895 38.495 27.327 2.56 0.416 5.184 0.608 7.776 0.608 13.536 0 26.495-5.408 36.031-15.040l97.021-97.021c14.944-14.752 19.327-37.119 11.136-56.446-6.368-15.136-15.424-29.023-26.751-40.895-80.222-79.998-8.416-223.386 98.205-330.423z" />
<glyph unicode="&#xe92e;" glyph-name="van" d="M1023.969 447.952c0 33.503-8.512 66.718-24.607 96.093l-117.532 214.521c-21.055 38.431-61.406 62.334-105.245 62.334h-72.606v0.192h-583.982c-66.174 0-119.996-53.822-119.996-119.996v-426.195c0-66.174 53.822-119.996 119.996-119.996h36.895c16.511-46.559 60.958-79.998 113.116-79.998s96.605 33.439 113.116 79.998h247.768c16.511-46.559 60.958-79.998 113.116-79.998s96.605 33.439 113.116 79.998h166.875zM776.585 740.903c14.624 0 28.063-7.968 35.071-20.767l105.885-193.21h-213.561v214.009zM270.009 154.937c-22.047 0-39.999 17.951-39.999 39.999s17.951 39.999 39.999 39.999 39.999-17.951 39.999-39.999c0-22.047-17.951-39.999-39.999-39.999zM743.978 154.937c-22.047 0-39.999 17.951-39.999 39.999s17.951 39.999 39.999 39.999 39.999-17.951 39.999-39.999c0-22.047-17.951-39.999-39.999-39.999zM857.094 234.935c-16.511 46.559-60.958 79.998-113.116 79.998s-96.605-33.439-113.116-79.998h-247.768c-16.511 46.559-60.958 79.998-113.116 79.998s-96.605-33.439-113.116-79.998h-36.895c-22.047 0-39.999 17.951-39.999 39.999v426.195c0 22.047 17.951 39.999 39.999 39.999l503.984-0.192v-213.977c0-44.095 35.903-79.998 79.998-79.998h239.993v-211.993z" />
<glyph unicode="&#xe92f;" glyph-name="ban" d="M512 960c-282.304 0-512-229.696-512-512s229.696-512 512-512 512 229.696 512 512-229.696 512-512 512zM512 10.56c-241.184 0-437.44 196.224-437.44 437.44s196.224 437.44 437.44 437.44 437.44-196.224 437.44-437.44-196.224-437.44-437.44-437.44zM158.784 146.304l653.664 653.664 52.704-52.704-653.664-653.664-52.704 52.704z" />
<glyph unicode="&#xe930;" glyph-name="lock" d="M800 584h-72.064v164.448c0 116.64-96.896 211.552-216 211.552s-216-94.912-216-211.552v-164.448h-71.936c-66.176 0-120-53.824-120-120v-408c0-66.176 53.824-120 120-120h576c66.176 0 120 53.824 120 120v408c0 66.176-53.824 120-120 120zM375.936 748.448c0 72.544 61.024 131.552 136 131.552s136-59.008 136-131.552v-164.448h-272v164.448zM840 56c0-22.048-17.952-40-40-40h-576c-22.048 0-40 17.952-40 40v408c0 22.048 17.952 40 40 40h576c22.048 0 40-17.952 40-40v-408zM512 388c-40.864 0-74.016-33.12-74.016-74.016 0-26.112 13.504-49.024 33.92-62.208v-87.808c0-22.080 17.92-40 40-40s40 17.92 40 40v87.712c20.48 13.152 34.080 36.128 34.080 62.304 0 40.864-33.12 74.016-74.016 74.016z" />
<glyph unicode="&#xe931;" glyph-name="lock2" d="M800 576h-32v128c0 141.184-114.816 256-256 256s-256-114.816-256-256v-128h-32c-52.896 0-96-43.040-96-96v-448c0-52.96 43.104-96 96-96h576c52.896 0 96 43.040 96 96v448c0 52.96-43.104 96-96 96zM341.344 704c0 94.112 76.544 170.656 170.656 170.656s170.656-76.544 170.656-170.656v-128h-341.344zM554.656 246.528v-97.184c0-23.552-19.072-42.656-42.656-42.656s-42.656 19.104-42.656 42.656v97.184c-25.376 14.816-42.656 42.016-42.656 73.472 0 47.072 38.272 85.344 85.344 85.344s85.344-38.272 85.344-85.344c0-31.456-17.28-58.656-42.656-73.472z" />
<glyph unicode="&#xe932;" glyph-name="unlock" d="M800 584h-424.064v164.448c0 72.544 61.024 131.552 136 131.552s136-59.008 136-131.552v-76.448h80v76.448c0 116.64-96.896 211.552-216 211.552s-216-94.912-216-211.552v-164.448h-71.936c-66.176 0-120-53.824-120-120v-408c0-66.176 53.824-120 120-120h576c66.176 0 120 53.824 120 120v408c0 66.176-53.824 120-120 120zM840 56c0-22.048-17.952-40-40-40h-576c-22.048 0-40 17.952-40 40v408c0 22.048 17.952 40 40 40h576c22.048 0 40-17.952 40-40v-408zM512 388c-40.864 0-74.016-33.12-74.016-74.016 0-26.112 13.504-49.024 33.92-62.208v-87.808c0-22.080 17.92-40 40-40s40 17.92 40 40v87.712c20.48 13.152 34.080 36.128 34.080 62.304 0 40.864-33.12 74.016-74.016 74.016z" />
<glyph unicode="&#xe933;" glyph-name="share" d="M255.992 610.324c-92.963 0-168.581-75.618-168.581-168.581s75.618-168.581 168.581-168.581 168.581 75.618 168.581 168.581-75.618 168.581-168.581 168.581zM255.992 348.076c-51.65 0-93.667 42.017-93.667 93.667s42.017 93.667 93.667 93.667 93.667-42.017 93.667-93.667-42.017-93.667-93.667-93.667zM768.008 959.999c-92.963 0-168.581-75.618-168.581-168.581s75.618-168.581 168.581-168.581 168.581 75.618 168.581 168.581c0 92.963-75.618 168.581-168.581 168.581zM768.008 697.751c-51.65 0-93.667 42.017-93.667 93.667s42.017 93.667 93.667 93.667 93.667-42.017 93.667-93.667c0-51.65-42.017-93.667-93.667-93.667zM768.008 273.162c-92.963 0-168.581-75.618-168.581-168.581s75.618-168.581 168.581-168.581 168.581 75.618 168.581 168.581-75.618 168.581-168.581 168.581zM768.008 10.881c-51.65 0-93.667 42.017-93.667 93.667s42.017 93.667 93.667 93.667 93.667-42.017 93.667-93.667c0-51.65-42.017-93.667-93.667-93.667zM340.571 539.314l314.698 203.558 40.705-62.914-314.698-203.558-40.705 62.914zM340.475 340.364l40.801 62.85 305.962-198.566-40.801-62.85-305.962 198.566z" />
<glyph unicode="&#xe934;" glyph-name="tag" d="M438.978-64c-0.034 0-0.068 0-0.102 0-32.050 0.034-62.189 12.527-84.819 35.224l-318.999 319.477c-46.659 46.761-46.659 122.808 0 169.569l430.032 430.851c44.304 44.406 103.284 68.879 166.019 68.879h272.819c66.148 0 120.009-53.826 120.009-120.009v-271.999c0-62.701-24.439-121.647-68.811-165.951l-431.363-430.919c-22.664-22.63-52.768-35.088-84.819-35.088zM631.108 879.96c-41.334 0-80.211-16.11-109.394-45.396l-430.032-430.851c-15.564-15.598-15.564-40.925 0-56.523l318.999-319.477c7.543-7.543 17.578-11.741 28.261-11.741h0.034c10.683 0 20.718 4.164 28.261 11.707l431.363 430.919c29.251 29.183 45.328 68.060 45.328 109.36v271.999c0 22.049-17.954 40.003-40.003 40.003zM733.949 553.964c-66.182 0-120.009 53.826-120.009 120.009s53.826 120.009 120.009 120.009c66.182 0 120.009-53.826 120.009-120.009s-53.826-120.009-120.009-120.009zM733.949 713.975c-22.049 0-40.003-17.954-40.003-40.003s17.954-40.003 40.003-40.003c22.049 0 40.003 17.954 40.003 40.003s-17.954 40.003-40.003 40.003z" />
<glyph unicode="&#xe935;" glyph-name="box-opened" d="M1020.035 516.106l-105.758 184.571c-3.616 6.304-9.216 10.847-15.648 13.216-0.032 0-0.032 0.032-0.064 0.032l-372.983 136.701c-6.624 2.432-13.856 2.432-20.479 0.064l-379.511-136.701c0 0-0.032 0-0.032 0-6.496-2.336-12.192-6.912-15.839-13.279l-105.758-184.571c-4.352-7.584-5.152-16.672-2.24-24.927s9.28-14.784 17.408-17.952l86.622-33.631v-229.403c0-12.639 7.936-23.935 19.84-28.223l376.631-135.645c3.84-1.792 8.096-2.816 12.639-2.816 0.064 0 0.128 0 0.192 0s0.16 0 0.224 0c3.456 0 6.88 0.576 10.176 1.76l379.511 136.701c11.904 4.288 19.84 15.583 19.84 28.223v231.962l80.063 31.071c8.16 3.168 14.496 9.728 17.408 17.952s2.112 17.344-2.24 24.927zM515.183 790.531l286.042-104.829-286.457-105.374-290.713 105.341zM149.272 648.966l321.625-116.542-80.67-138.877-316.824 122.973zM165.784 416.332l226.651-87.966c3.552-1.376 7.232-2.048 10.847-2.048 10.432 0 20.447 5.472 25.951 14.943l55.646 95.774v-320.664l-319.065 114.909zM864.775 231.28l-319.929-115.229v315.8l49.631-90.014c7.264-13.151 23.135-18.911 37.119-13.472l233.179 90.526zM634.348 393.773l-76.382 138.525 316.824 116.573 75.806-132.317z" />
<glyph unicode="&#xe936;" glyph-name="folder" d="M870.402 755.196h-372.706l-39.513 118.616c-6.989 20.505-26.073 34.982-48.575 34.982 0 0 0 0 0 0h-256.010c-84.786-0.115-153.521-68.812-153.598-153.598v-614.392c0.077-84.786 68.812-153.483 153.598-153.598h716.804c84.786 0.115 153.483 68.812 153.598 153.598v460.794c-0.115 84.786-68.812 153.521-153.598 153.598v0zM921.627 140.804c-0.038-28.262-22.925-51.148-51.187-51.187h-716.804c-28.262 0.038-51.148 22.925-51.187 51.187v614.392c0.038 28.262 22.925 51.148 51.187 51.187h219.108l39.513-118.616c6.989-20.505 26.073-34.982 48.575-34.982 0 0 0 0 0 0h409.608c28.262-0.038 51.148-22.925 51.187-51.187v0z" />
<glyph unicode="&#xe937;" d="M1024 448c0 282.77-229.23 512-512 512s-512-229.23-512-512c0-255.554 187.231-467.37 432-505.78v357.78h-130v148h130v112.8c0 128.32 76.438 199.2 193.39 199.2 56.017 0 114.61-10 114.61-10v-126h-64.562c-63.603 0-83.438-39.467-83.438-79.957v-96.043h142l-22.7-148h-119.3v-357.78c244.769 38.41 432 250.226 432 505.78z" />
<glyph unicode="&#xe938;" d="M711.3 300l22.7 148h-142v96.043c0 40.49 19.835 79.957 83.438 79.957h64.562v126c0 0-58.593 10-114.61 10-116.952 0-193.39-70.88-193.39-199.2v-112.8h-130v-148h130v-357.78c26.067-4.090 52.784-6.22 80-6.22s53.933 2.13 80 6.22v357.78h119.3z" />
<glyph unicode="&#xe939;" glyph-name="play" d="M995.811 493.777l-921.692 460.846c-6.644 3.38-14.517 5.377-22.85 5.377-28.265 0-51.231-22.889-51.269-51.154v-921.692c0.077-28.265 23.004-51.154 51.269-51.154 8.334 0 16.168 1.997 23.119 5.492l-0.307-0.115 921.692 460.846c16.859 8.641 28.227 25.884 28.227 45.816s-11.368 37.175-27.92 45.662l-0.307 0.154zM102.422 69.99v755.98l755.98-377.971z" />
<glyph unicode="&#xe93a;" glyph-name="pause" d="M734.543 960c-36.096 0-64.896-28.8-62.592-64.896v-894.329c-2.272-86.367 130.239-86.367 127.967 0v894.329c0 36.096-28.8 64.896-65.343 64.896zM286.707 960c-33.824 0-62.624-28.8-62.624-64.896v-894.329c-2.272-86.367 130.239-86.367 127.967 0v894.329c2.272 36.096-29.248 64.896-65.343 64.896z" />
<glyph unicode="&#xe93b;" glyph-name="next" d="M752.737 490.004l-384.258 448.285c-11.816 13.353-28.963 21.711-48.080 21.711-35.352 0-64.027-28.675-64.027-64.027 0-15.659 5.62-30.020 14.986-41.164l-0.096 0.096 348.522-406.593-348.522-406.593c-9.606-11.143-15.418-25.745-15.418-41.692 0-35.352 28.675-64.027 64.027-64.027 19.405 0 36.793 8.646 48.561 22.287l0.048 0.096 384.258 448.285c9.558 11.143 15.418 25.697 15.418 41.644s-5.86 30.549-15.514 41.788l0.048-0.096z" />
<glyph unicode="&#xe93c;" glyph-name="previous" d="M404.53 448.048l349.014 407.224c9.044 10.968 14.48 25.16 14.48 40.602 0 35.407-28.72 64.126-64.126 64.126-18.906 0-35.888-8.178-47.626-21.215l-0.048-0.048-384.854-448.98c-9.621-11.161-15.442-25.785-15.442-41.757s5.869-30.596 15.538-41.853l-0.048 0.096 384.854-448.98c11.786-13.085 28.768-21.263 47.674-21.263 35.407 0 64.126 28.72 64.126 64.126 0 15.442-5.484 29.634-14.576 40.698l0.096-0.096z" />
<glyph unicode="&#xe93d;" glyph-name="expand" d="M1023.762 921.508c-0.064 0.64-0.192 1.248-0.256 1.856-0.096 0.768-0.192 1.504-0.352 2.272-0.128 0.704-0.352 1.408-0.512 2.112-0.16 0.64-0.288 1.28-0.512 1.92-0.192 0.704-0.48 1.344-0.704 2.016-0.224 0.64-0.448 1.28-0.704 1.92s-0.576 1.216-0.864 1.856c-0.32 0.64-0.608 1.312-0.928 1.952-0.32 0.576-0.672 1.152-1.024 1.728-0.384 0.608-0.736 1.248-1.12 1.856s-0.896 1.216-1.344 1.824c-0.384 0.512-0.736 1.024-1.12 1.504-0.896 1.088-1.824 2.112-2.816 3.104 0 0 0 0.032-0.032 0.032s0 0-0.032 0.032c-0.992 0.992-2.016 1.92-3.104 2.816-0.48 0.416-1.024 0.768-1.536 1.152-0.608 0.448-1.216 0.928-1.824 1.344s-1.248 0.768-1.856 1.12c-0.576 0.352-1.12 0.704-1.728 1.024-0.64 0.352-1.28 0.64-1.952 0.928-0.608 0.288-1.216 0.608-1.856 0.864s-1.28 0.48-1.92 0.704c-0.672 0.256-1.344 0.512-2.016 0.704-0.64 0.192-1.28 0.352-1.952 0.512-0.704 0.192-1.408 0.384-2.112 0.512-0.736 0.16-1.504 0.224-2.272 0.352-0.608 0.096-1.248 0.192-1.856 0.256-1.408 0.128-2.816 0.224-4.223 0.224h-298.619c-23.549 0-42.651-19.102-42.651-42.651s19.102-42.651 42.651-42.651h195.624l-311.129-311.129c-16.67-16.67-16.67-43.675 0-60.344s43.675-16.67 60.344 0l311.129 311.129v-195.624c0-23.549 19.102-42.651 42.651-42.651s42.651 19.102 42.651 42.651v298.619c0 1.408-0.064 2.816-0.224 4.223zM396.544 392.87l-311.129-311.129v195.624c0 23.549-19.102 42.651-42.651 42.651s-42.651-19.102-42.651-42.651v-298.619c0-1.408 0.064-2.816 0.224-4.223 0.064-0.64 0.192-1.248 0.256-1.856 0.096-0.768 0.192-1.504 0.352-2.272 0.128-0.704 0.352-1.408 0.512-2.112 0.16-0.64 0.32-1.312 0.512-1.952 0.192-0.672 0.48-1.344 0.704-2.016s0.448-1.28 0.704-1.92 0.576-1.216 0.864-1.856c0.32-0.64 0.608-1.312 0.928-1.952 0.32-0.576 0.672-1.152 1.024-1.728 0.384-0.608 0.736-1.248 1.12-1.856s0.896-1.216 1.344-1.824c0.384-0.512 0.736-1.024 1.152-1.536 0.896-1.088 1.824-2.112 2.816-3.104 0 0 0 0 0.032-0.032s0.032 0 0.032-0.032c0.992-0.992 2.016-1.92 3.104-2.816 0.48-0.416 1.024-0.768 1.536-1.12 0.608-0.448 1.216-0.928 1.824-1.344s1.248-0.768 1.856-1.12c0.576-0.352 1.12-0.704 1.728-1.024 0.64-0.352 1.28-0.64 1.952-0.928 0.608-0.288 1.216-0.608 1.856-0.864s1.28-0.48 1.92-0.704c0.672-0.256 1.344-0.512 2.016-0.704 0.64-0.192 1.28-0.352 1.92-0.512 0.704-0.192 1.408-0.384 2.112-0.512 0.736-0.16 1.504-0.224 2.272-0.352 0.608-0.096 1.248-0.192 1.856-0.256 1.408-0.128 2.816-0.224 4.191-0.224 0 0 0 0 0 0h298.619c23.549 0 42.651 19.102 42.651 42.651s-19.102 42.651-42.651 42.651h-195.624l311.129 311.129c16.67 16.67 16.67 43.675 0 60.344s-43.675 16.67-60.344 0z" />
<glyph unicode="&#xe93e;" glyph-name="contract" d="M1011.512 947.496c-16.672 16.672-43.679 16.672-60.351 0l-311.163-311.163v195.645c0 23.552-19.104 42.655-42.655 42.655s-42.655-19.104-42.655-42.655v-298.651c0 0 0-0.032 0-0.032 0-1.376 0.064-2.784 0.224-4.16 0.064-0.64 0.192-1.248 0.288-1.888 0.096-0.736 0.192-1.504 0.352-2.24s0.352-1.408 0.512-2.112c0.16-0.64 0.288-1.28 0.48-1.92 0.224-0.704 0.48-1.376 0.704-2.048 0.224-0.64 0.448-1.28 0.704-1.92s0.576-1.248 0.864-1.856c0.288-0.64 0.576-1.312 0.928-1.92 0.32-0.576 0.672-1.152 1.024-1.728 0.384-0.608 0.736-1.248 1.12-1.856s0.896-1.216 1.344-1.824c0.384-0.512 0.736-1.024 1.12-1.504 1.792-2.176 3.776-4.16 5.952-5.952 0.48-0.416 1.024-0.768 1.504-1.152 0.608-0.448 1.216-0.928 1.824-1.344s1.248-0.768 1.856-1.12c0.576-0.352 1.12-0.704 1.728-1.024 0.64-0.352 1.28-0.64 1.92-0.928s1.216-0.608 1.856-0.864c0.64-0.256 1.28-0.48 1.92-0.704 0.672-0.256 1.344-0.512 2.048-0.704 0.64-0.192 1.28-0.32 1.92-0.48 0.704-0.192 1.408-0.384 2.112-0.512s1.504-0.224 2.24-0.352c0.64-0.096 1.248-0.224 1.888-0.256 1.376-0.128 2.784-0.224 4.16-0.224 0 0 0.032 0 0.032 0h298.651c23.552 0 42.655 19.104 42.655 42.655s-19.104 42.655-42.655 42.655h-195.645l311.163 311.163c16.672 16.672 16.672 43.679 0 60.351zM469.121 366.897c-0.064 0.64-0.192 1.248-0.256 1.888-0.096 0.736-0.192 1.504-0.352 2.24s-0.352 1.408-0.512 2.112c-0.16 0.64-0.288 1.28-0.48 1.92-0.224 0.704-0.48 1.376-0.704 2.048-0.224 0.64-0.448 1.28-0.704 1.92s-0.576 1.248-0.864 1.856c-0.288 0.64-0.576 1.312-0.928 1.92-0.32 0.576-0.672 1.152-1.024 1.728-0.384 0.608-0.736 1.248-1.12 1.856s-0.896 1.216-1.344 1.824c-0.384 0.512-0.736 1.024-1.152 1.504-1.792 2.176-3.776 4.16-5.952 5.952-0.48 0.416-1.024 0.768-1.504 1.12-0.608 0.448-1.216 0.928-1.824 1.344s-1.248 0.768-1.856 1.12c-0.576 0.352-1.12 0.704-1.728 1.024-0.64 0.352-1.28 0.64-1.92 0.928s-1.216 0.608-1.856 0.864c-0.64 0.256-1.28 0.48-1.92 0.704-0.672 0.256-1.344 0.512-2.048 0.704-0.64 0.192-1.28 0.32-1.92 0.48-0.704 0.192-1.408 0.384-2.112 0.512s-1.504 0.224-2.24 0.352c-0.64 0.096-1.248 0.192-1.888 0.288-1.408 0.128-2.816 0.224-4.224 0.224v0h-298.651c-23.552 0-42.655-19.104-42.655-42.655s19.104-42.655 42.655-42.655h195.645l-311.163-311.163c-16.672-16.672-16.672-43.679 0-60.351s43.679-16.672 60.351 0l311.163 311.163v-195.645c0-23.552 19.104-42.655 42.655-42.655s42.655 19.104 42.655 42.655v298.651c0 1.408-0.064 2.816-0.224 4.224z" />
<glyph unicode="&#xe93f;" glyph-name="degrees-360" d="M853.125 936.929c-16.319 0-29.535-13.216-29.535-29.535v-53.086c-88.989 68.542-197.434 105.661-311.606 105.661-136.764 0-265.336-53.246-362.037-149.947s-149.947-225.273-149.947-362.037c0-136.764 53.246-265.336 149.947-362.037 5.76-5.76 13.344-8.64 20.895-8.64s15.136 2.88 20.895 8.64c11.52 11.52 11.52 30.239 0 41.759-85.533 85.533-132.668 199.29-132.668 320.246 0 249.72 203.162 452.914 452.914 452.914 94.589 0 184.73-28.799 260.44-82.237h-37.439c-16.319 0-29.535-13.216-29.535-29.535s13.216-29.535 29.535-29.535h118.14c0.928 0 1.888 0.064 2.784 0.128 0 0 0.032 0 0.032 0 0.832 0.064 1.632 0.192 2.432 0.352 0.128 0.032 0.288 0.032 0.416 0.064 0.768 0.16 1.536 0.352 2.304 0.576 0.16 0.032 0.32 0.064 0.48 0.128 0.736 0.224 1.44 0.48 2.176 0.768 0.192 0.064 0.384 0.128 0.544 0.192 0.704 0.288 1.376 0.608 2.048 0.96 0.192 0.096 0.384 0.192 0.576 0.288 0.704 0.384 1.376 0.768 2.048 1.216 0.16 0.096 0.288 0.16 0.448 0.256 3.296 2.208 6.144 5.024 8.32 8.32 0.096 0.16 0.192 0.288 0.256 0.448 0.416 0.672 0.832 1.344 1.216 2.048 0.096 0.192 0.192 0.384 0.288 0.576 0.352 0.672 0.672 1.344 0.96 2.048 0.064 0.192 0.128 0.384 0.192 0.576 0.288 0.704 0.544 1.44 0.768 2.176 0.064 0.16 0.064 0.32 0.128 0.48 0.224 0.768 0.416 1.536 0.576 2.304 0.032 0.128 0.032 0.256 0.064 0.384 0.32 1.728 0.512 3.488 0.512 5.28v118.236c0 16.319-13.216 29.535-29.535 29.535zM339.253 448.016c26.399 9.632 44.255 34.719 44.255 63.326 0 37.183-30.239 67.422-67.422 67.422h-97.085c-16.319 0-29.535-13.216-29.535-29.535s13.216-29.535 29.535-29.535h97.085c4.608 0 8.352-3.744 8.352-8.352 0-3.84-2.592-7.168-6.336-8.096l-64.446-16.127c-17.983-4.48-30.527-20.575-30.527-39.103s12.544-34.623 30.527-39.103l64.446-16.127c3.744-0.928 6.336-4.256 6.336-8.096 0-4.608-3.744-8.352-8.352-8.352h-97.085c-16.319 0-29.535-13.216-29.535-29.535s13.216-29.535 29.535-29.535h97.085c37.183 0 67.422 30.239 67.422 67.422 0 28.607-17.887 53.694-44.255 63.326zM528.847 477.551h-54.814v21.087c0 11.616 9.44 21.087 21.087 21.087h84.349c16.319 0 29.535 13.216 29.535 29.535s-13.216 29.535-29.535 29.535h-84.349c-44.191 0-80.158-35.967-80.158-80.158v-101.213c0-44.191 35.967-80.158 80.158-80.158h33.727c44.191 0 80.158 35.967 80.158 80.158s-35.967 80.158-80.158 80.158zM528.847 376.338h-33.727c-11.616 0-21.087 9.472-21.087 21.087v21.087h54.814c11.616 0 21.087-9.44 21.087-21.087s-9.44-21.087-21.087-21.087zM754.344 578.764h-33.727c-44.191 0-80.158-35.967-80.158-80.158v-101.213c0-44.191 35.967-80.158 80.158-80.158h33.727c44.191 0 80.158 35.967 80.158 80.158v101.213c0 44.191-35.967 80.158-80.158 80.158zM775.432 397.394c0-11.616-9.44-21.087-21.087-21.087h-33.727c-11.616 0-21.087 9.472-21.087 21.087v101.213c0 11.616 9.44 21.087 21.087 21.087h33.727c11.616 0 21.087-9.472 21.087-21.087v-101.213zM523.6-4.738c-7.616-0.192-15.392-0.192-23.007 0-16.287 0.32-29.855-12.48-30.271-28.799s12.48-29.855 28.799-30.271c4.256-0.096 8.576-0.16 12.832-0.16 4.352 0 8.768 0.064 13.12 0.16 16.319 0.416 29.183 13.952 28.767 30.271s-14.016 29.183-30.271 28.767zM1009.76 568.3c-2.016 8.384-4.288 16.799-6.72 25.055-4.64 15.648-21.055 24.575-36.703 19.967s-24.575-21.055-19.967-36.703c2.144-7.296 4.16-14.752 5.952-22.143 3.264-13.536 15.36-22.623 28.703-22.623 2.304 0 4.608 0.256 6.944 0.832 15.84 3.808 25.631 19.775 21.791 35.647zM295.543 50.076c-6.688 3.648-13.376 7.52-19.871 11.488-13.92 8.512-32.095 4.16-40.607-9.728s-4.16-32.095 9.728-40.607c7.328-4.512 14.912-8.864 22.463-12.992 4.48-2.432 9.344-3.616 14.112-3.616 10.464 0 20.607 5.568 25.951 15.424 7.808 14.336 2.528 32.255-11.808 40.063zM405.907 7.582c-7.424 1.792-14.88 3.776-22.175 5.92-15.648 4.608-32.063-4.352-36.671-19.999s4.352-32.063 19.967-36.671c8.256-2.432 16.703-4.672 25.087-6.688 2.304-0.544 4.64-0.832 6.912-0.832 13.344 0 25.439 9.12 28.703 22.655 3.808 15.872-5.984 31.807-21.823 35.615zM961.602 693.096c-4.128 7.552-8.512 15.104-13.024 22.463-8.544 13.888-26.719 18.271-40.639 9.728s-18.239-26.719-9.728-40.639c4-6.496 7.872-13.184 11.52-19.871 5.376-9.824 15.488-15.392 25.951-15.392 4.8 0 9.632 1.152 14.144 3.616 14.304 7.808 19.583 25.759 11.776 40.095zM677.131-6.402c-4.608 15.648-21.055 24.575-36.703 19.967-7.328-2.176-14.784-4.16-22.143-5.92-15.872-3.808-25.631-19.743-21.823-35.615 3.264-13.536 15.36-22.655 28.703-22.655 2.272 0 4.608 0.256 6.912 0.832 8.352 2.016 16.799 4.256 25.087 6.72 15.648 4.608 24.575 21.055 19.967 36.703zM988.065 363.955c-15.872 3.808-31.807-5.984-35.615-21.855-1.76-7.392-3.776-14.88-5.92-22.175-4.608-15.648 4.352-32.063 19.999-36.671 2.784-0.832 5.6-1.216 8.352-1.216 12.768 0 24.543 8.352 28.319 21.215 2.432 8.256 4.672 16.703 6.688 25.087 3.808 15.872-5.984 31.807-21.855 35.615zM950.082 243.574c-14.336 7.808-32.255 2.528-40.063-11.808-3.648-6.688-7.52-13.376-11.488-19.903-8.512-13.92-4.16-32.095 9.76-40.607 4.8-2.944 10.144-4.352 15.392-4.352 9.952 0 19.647 5.024 25.215 14.112 4.512 7.36 8.864 14.912 12.992 22.495 7.808 14.336 2.528 32.255-11.808 40.063zM882.116 137.146c-11.84 11.232-30.527 10.752-41.759-1.056-5.248-5.536-10.72-10.976-16.223-16.255-11.808-11.232-12.288-29.951-1.024-41.759 5.792-6.112 13.6-9.184 21.407-9.184 7.328 0 14.624 2.688 20.351 8.128 6.24 5.952 12.416 12.096 18.335 18.335 11.232 11.808 10.752 30.527-1.056 41.759zM1023.808 461.264c-0.416 16.063-13.536 28.799-29.503 28.799-0.256 0-0.512 0-0.768 0-16.319-0.416-29.183-13.984-28.767-30.271 0.096-3.904 0.16-7.84 0.16-11.744 0-3.744-0.032-7.52-0.128-11.232-0.384-16.319 12.512-29.855 28.799-30.239 0.256 0 0.48 0 0.736 0 15.968 0 29.119 12.768 29.503 28.831 0.096 4.192 0.16 8.448 0.16 12.672 0 4.416-0.064 8.864-0.16 13.248zM789.031 51.9c-8.544 13.888-26.719 18.271-40.639 9.728-6.496-3.968-13.152-7.84-19.839-11.488-14.336-7.808-19.583-25.759-11.776-40.063 5.376-9.824 15.488-15.392 25.951-15.392 4.768 0 9.632 1.152 14.112 3.616 7.552 4.128 15.104 8.48 22.431 12.992 13.92 8.544 18.271 26.719 9.728 40.639z" />
<glyph unicode="&#xe940;" glyph-name="gift" d="M870.474 704.481h-21.505c10.176 17.664 16.244 38.823 16.397 61.403v0.038c-0.038 70.773-57.448 128.144-128.221 128.144-35.252 0-67.163-14.208-90.319-37.211v0l-104.105-104.489-170.615 170.577c-23.194 22.657-54.913 36.635-89.935 36.635-70.504 0-127.798-56.718-128.682-127.030v-0.077c0-0.038 0-0.077 0-0.115 0-35.329 14.4-67.317 37.671-90.396l37.518-37.518h-75.074c-84.789-0.077-153.527-68.815-153.604-153.604v-102.415c0-28.263 22.925-51.188 51.188-51.188v0-307.208c0.115-84.789 68.815-153.489 153.604-153.604h614.415c84.789 0.115 153.489 68.815 153.604 153.604v307.208c28.263 0 51.188 22.925 51.188 51.188v0 102.415c-0.115 84.789-68.815 153.527-153.604 153.604v0zM921.701 550.877v-51.188h-256.019v102.415h204.792c28.263-0.038 51.188-22.925 51.188-51.188v0zM460.89 602.066h102.415v-102.415h-102.415zM718.982 784.202c4.647 4.685 11.098 7.565 18.24 7.565 14.208 0 25.729-11.52 25.729-25.729 0-7.104-2.88-13.517-7.527-18.164v0l-43.355-43.355h-72.539zM263.624 814.385c-4.531 4.608-7.373 10.944-7.373 17.933 0 14.093 11.443 25.537 25.537 25.537 6.989 0 13.325-2.803 17.933-7.335l146.116-146.039h-72.309zM102.455 550.877c0.038 28.263 22.925 51.188 51.188 51.188h204.792v-102.415h-256.019zM870.474 90.066c-0.038-28.263-22.925-51.188-51.188-51.188h-614.415c-28.263 0.038-51.188 22.925-51.188 51.188v307.208h716.831z" />
<glyph unicode="&#xe941;" glyph-name="tiktok" d="M534.417 959.147c55.892 0.853 111.359 0.427 166.825 0.853 3.413-65.279 26.88-131.838 74.666-177.918 47.786-47.359 115.199-69.119 180.905-76.372v-171.945c-61.439 2.133-123.305 14.933-179.198 41.386-24.32 11.093-46.932 25.173-69.119 39.68-0.427-124.585 0.427-249.17-0.853-373.328-3.413-59.732-23.040-119.039-57.599-168.105-55.892-81.919-152.745-135.251-252.157-136.958-61.012-3.413-122.026 13.227-174.078 43.946-86.186 50.772-146.771 143.785-155.731 243.624-0.853 21.333-1.28 42.666-0.427 63.572 7.68 81.066 47.786 158.718 110.079 211.624 70.826 61.439 169.811 90.879 262.397 73.386 0.853-63.146-1.707-126.291-1.707-189.438-42.239 13.653-91.732 9.813-128.851-15.787-26.88-17.493-47.359-44.372-58.026-74.666-8.96-21.76-6.4-45.652-5.973-68.692 10.24-69.972 77.652-128.851 149.331-122.452 47.786 0.427 93.439 28.16 118.186 68.692 8.107 14.080 17.067 28.587 17.493 45.226 4.267 76.372 2.56 152.318 2.987 228.69 0.427 171.945-0.427 343.463 0.853 514.981z" />
<glyph unicode="&#xe942;" glyph-name="sort-down" d="M56.877 648.692h573.166v113.756h-573.166c-31.411 0-56.877-25.466-56.877-56.877s25.466-56.879 56.877-56.879zM56.877 420.435h573.166v113.756h-573.166c-31.411 0-56.877-25.466-56.877-56.879s25.466-56.877 56.877-56.877zM56.877 305.936v-0.002c-31.411 0-56.877-25.464-56.877-56.877s25.466-56.877 56.877-56.877h398.193c-4.498 13.853-6.873 28.464-6.873 43.452 0 25.099 6.581 49.174 18.874 70.304h-410.194zM1002.934 286.49c-28.088 28.090-73.632 28.090-101.722 0l-59.058-59.058v614.772c0 39.726-32.203 71.927-71.929 71.927s-71.929-32.203-71.929-71.927v-614.772l-59.058 59.058c-28.090 28.088-73.632 28.090-101.722 0s-28.090-73.632 0-101.722l181.837-181.834c28.034-28.043 73.634-28.139 101.744 0l181.837 181.834c28.088 28.090 28.090 73.632 0 101.722z" />
<glyph unicode="&#xe943;" glyph-name="filter" d="M985.953 960h-943.953c-22.094 0-40-17.906-40-40 0-111.391 47.75-217.734 131.008-291.742l175.18-155.703c30.375-27 47.797-65.797 47.797-106.445v-390.063c0-31.875 35.625-50.984 62.18-33.273l235.992 157.32c11.125 7.422 17.813 19.906 17.813 33.281v232.734c0 40.648 17.422 79.445 47.797 106.445l175.172 155.703c83.258 74.008 131.008 180.352 131.008 291.742 0 22.094-17.906 40-39.992 40zM841.789 688.055l-175.172-155.711c-47.438-42.172-74.648-102.758-74.648-166.227v-211.336l-155.992-103.992v315.32c0 63.477-27.211 124.063-74.648 166.234l-175.172 155.703c-56.141 49.914-91.977 118.305-101.57 191.961h858.774c-9.594-73.656-45.422-142.047-101.57-191.953z" />
</font>
</defs>
</svg>
